<svg id="b67c5032-48d9-4ec6-8076-8c30f6dfe2ad" data-name="a51ec666-6e61-47e3-89b1-e24ec0718d6e" xmlns="http://www.w3.org/2000/svg" xmlns:xlink="http://www.w3.org/1999/xlink" width="865.76" height="682.89" viewBox="0 0 865.76 682.89"><defs><clipPath id="bd2ae768-79a5-4c89-a2e3-5406fc35bbf0"><path d="M125.86,154.2C186.05,89.75,270.08,46.87,361.05,44.12c129.58-3.93,196.33,98.16,292.53,145.28S816.52,277.75,828.3,370s2,178.65-78.53,221.85S620.2,562.42,516.15,566.34,349.27,688.06,218.72,652.73C132.83,629.46,69.14,544.22,45.19,462.19,12.4,349.9,50.39,235.05,125.86,154.2Z" fill="none"/></clipPath></defs><path id="f7de0cf9-47a6-4999-8e9c-4385fde9a275" data-name="aec1663b-be0a-4e27-9fc1-a159fec2664c" d="M125.86,154.2C186.05,89.75,270.08,46.87,361.05,44.12c129.58-3.93,196.33,98.16,292.53,145.28S816.52,277.75,828.3,370s2,178.65-78.53,221.85S620.2,562.42,516.15,566.34,349.27,688.06,218.72,652.73C132.83,629.46,69.14,544.22,45.19,462.19,12.4,349.9,50.39,235.05,125.86,154.2Z" fill="#0071f2"/><path id="a598f9be-a2dd-4582-899d-4b6b3f1b45a3" data-name="a9281b97-f77f-4dea-ab0e-6e5c82aceaf6" d="M125.86,154.2C186.05,89.75,270.08,46.87,361.05,44.12c129.58-3.93,196.33,98.16,292.53,145.28S816.52,277.75,828.3,370s2,178.65-78.53,221.85S620.2,562.42,516.15,566.34,349.27,688.06,218.72,652.73C132.83,629.46,69.14,544.22,45.19,462.19,12.4,349.9,50.39,235.05,125.86,154.2Z" fill="#fff" opacity="0.7" style="isolation:isolate"/><g clip-path="url(#bd2ae768-79a5-4c89-a2e3-5406fc35bbf0)"><g id="f5509084-e6ce-4cc3-ae71-2b1124914695" data-name="abfb8b45-3252-4a6f-8718-71d649979389"><polygon points="104.69 49.13 93.56 61.39 103.59 64.74 104.69 49.13" fill="#dedede"/><polygon points="66.64 11.66 52.15 20.57 56.61 29.49 71.1 25.03 66.64 11.66" fill="#0071f2"/><polygon points="119.19 114.9 106.93 117.12 109.15 129.38 121.42 124.92 119.19 114.9" fill="#b5b5b5"/><polygon points="204.49 235.72 218.09 226.26 209.06 220.76 204.49 235.72" fill="#dedede"/><polygon points="55.66 185.24 55.02 168.25 45.06 167.75 41.81 182.54 55.66 185.24" fill="#2f2e41"/><polygon points="205.01 168.4 217.45 168.94 218.01 156.5 205.06 158.12 205.01 168.4" fill="#b5b5b5"/><polygon points="574.45 285.02 588.05 275.54 579.02 270.04 574.45 285.02" fill="#dedede"/><polygon points="171.75 251.7 162.84 265.67 173.28 267.26 171.75 251.7" fill="#dedede"/><polygon points="254.79 248.18 270.89 242.71 268.54 233.03 253.41 234.15 254.79 248.18" fill="#0071f2"/><polygon points="574.97 217.68 587.43 218.24 587.99 205.78 575.05 207.4 574.97 217.68" fill="#b5b5b5"/><polygon points="104.69 214.55 93.56 226.82 103.59 230.16 104.69 214.55" fill="#dedede"/><polygon points="582.98 307.4 568.48 316.32 572.94 325.23 587.43 320.77 582.98 307.4" fill="#2f2e41"/><polygon points="119.19 280.32 106.93 282.54 109.15 294.81 121.42 290.35 119.19 280.32" fill="#b5b5b5"/><polygon points="326.27 376.25 339.87 366.77 330.84 361.29 326.27 376.25" fill="#dedede"/><polygon points="149.31 347.38 165.43 341.91 163.08 332.23 147.95 333.35 149.31 347.38" fill="#2f2e41"/><polygon points="205.01 333.81 217.45 334.37 218.01 321.91 205.06 323.54 205.01 333.81" fill="#b5b5b5"/><polygon points="526.06 296.49 538.51 297.05 539.07 284.61 526.12 286.23 526.06 296.49" fill="#b5b5b5"/><polygon points="41.42 506.63 28.79 517.38 38.33 521.97 41.42 506.63" fill="#dedede"/><polygon points="72.46 487.57 80 472.82 69.44 472.24 72.46 487.57" fill="#dedede"/><polygon points="142.78 518.07 152.69 504.81 142.37 502.44 142.78 518.07" fill="#dedede"/><polygon points="122 454.03 134 450.62 130.6 438.64 118.83 444.26 122 454.03" fill="#b5b5b5"/><polygon points="25.45 341.98 12.83 352.73 22.36 357.32 25.45 341.98" fill="#dedede"/><polygon points="81.64 393.91 69.78 399.27 72.27 406.45 83.71 404.49 81.64 393.91" fill="#0071f2"/><polygon points="31.42 409.06 18.98 409.71 19.64 422.15 32.36 419.3 31.42 409.06" fill="#b5b5b5"/><polygon points="178.06 389.34 165.43 400.09 174.94 404.68 178.06 389.34" fill="#dedede"/><polygon points="274.12 355.6 263.37 360.45 265.65 366.98 276 365.19 274.12 355.6" fill="#2f2e41"/><polygon points="184.02 456.42 171.58 457.05 172.22 469.5 184.96 466.64 184.02 456.42" fill="#b5b5b5"/><polygon points="814.66 109.33 828.26 99.85 819.23 94.36 814.66 109.33" fill="#dedede"/><polygon points="732.2 162.21 744.17 158.79 740.78 146.82 729.01 152.43 732.2 162.21" fill="#b5b5b5"/><polygon points="788.23 97.52 775.6 108.26 785.14 112.85 788.23 97.52" fill="#dedede"/><polygon points="848.33 145.72 832.81 152.71 836.1 162.11 851.04 159.54 848.33 145.72" fill="#0071f2"/><polygon points="746.15 557.35 759.75 547.89 750.72 542.39 746.15 557.35" fill="#dedede"/><polygon points="663.26 541.01 654.34 554.98 664.79 556.59 663.26 541.01" fill="#dedede"/><polygon points="596.22 503.87 585.06 516.13 595.1 519.47 596.22 503.87" fill="#dedede"/><polygon points="555.89 497.83 554.02 484.96 546.41 485.37 545.15 496.9 555.89 497.83" fill="#2f2e41"/><polygon points="610.71 569.63 598.44 571.86 600.68 584.12 612.93 579.66 610.71 569.63" fill="#b5b5b5"/><polygon points="695.99 690.46 709.59 680.98 700.56 675.5 695.99 690.46" fill="#dedede"/><polygon points="640.84 636.7 656.95 631.24 654.58 621.54 639.48 622.65 640.84 636.7" fill="#0071f2"/><polygon points="696.51 623.12 708.98 623.68 709.53 611.24 696.59 612.84 696.51 623.12" fill="#b5b5b5"/><polygon points="548.69 628.61 562.29 619.13 553.26 613.65 548.69 628.61" fill="#dedede"/><polygon points="549.21 561.27 561.67 561.83 562.21 549.39 549.29 550.99 549.21 561.27" fill="#b5b5b5"/><polygon points="669.56 678.65 656.93 689.4 666.47 693.98 669.56 678.65" fill="#dedede"/><polygon points="497.58 59.41 505.1 44.66 494.54 44.06 497.58 59.41" fill="#dedede"/><polygon points="567.88 89.91 577.81 76.63 567.49 74.28 567.88 89.91" fill="#dedede"/><polygon points="547.12 25.85 559.12 22.46 555.7 10.46 543.93 16.08 547.12 25.85" fill="#b5b5b5"/><polygon points="768.16 -0.69 758.46 -14.68 749.81 -9.74 755.05 4.5 768.16 -0.69" fill="#0071f2"/><polygon points="609.13 28.24 596.68 28.89 597.34 41.34 610.06 38.48 609.13 28.24" fill="#b5b5b5"/><polygon points="596.46 506.63 583.85 517.38 593.36 521.97 596.46 506.63" fill="#dedede"/><polygon points="627.52 487.57 635.03 472.82 624.48 472.24 627.52 487.57" fill="#dedede"/><polygon points="697.82 518.07 707.73 504.81 697.43 502.44 697.82 518.07" fill="#dedede"/><polygon points="529.18 388.69 542.78 379.21 533.75 373.73 529.18 388.69" fill="#dedede"/><polygon points="446.29 372.35 437.37 386.32 447.83 387.91 446.29 372.35" fill="#dedede"/><polygon points="479.56 454.46 492 455.02 492.56 442.56 479.62 444.18 479.56 454.46" fill="#b5b5b5"/><polygon points="360.86 189.01 373.31 189.57 373.86 177.13 360.91 178.73 360.86 189.01" fill="#b5b5b5"/><polygon points="480.85 349.41 490.75 336.13 480.46 333.78 480.85 349.41" fill="#dedede"/><polygon points="677.06 454.03 689.04 450.62 685.64 438.64 673.87 444.26 677.06 454.03" fill="#b5b5b5"/><polygon points="580.49 341.98 567.88 352.73 577.4 357.32 580.49 341.98" fill="#dedede"/><polygon points="586.46 409.06 574.02 409.71 574.67 422.15 587.39 419.3 586.46 409.06" fill="#b5b5b5"/><polygon points="82.42 555.13 96 545.67 86.97 540.17 82.42 555.13" fill="#dedede"/><polygon points="115.55 612.53 100.03 619.5 103.31 628.92 118.25 626.35 115.55 612.53" fill="#2f2e41"/><polygon points="61.42 631.4 48.98 632.04 49.63 644.48 62.35 641.63 61.42 631.4" fill="#b5b5b5"/><polygon points="431.06 696.65 438.6 681.9 428.04 681.32 431.06 696.65" fill="#dedede"/><polygon points="332.75 597.77 346.34 588.3 337.3 582.81 332.75 597.77" fill="#dedede"/><polygon points="480.61 663.1 492.6 659.7 489.21 647.71 477.44 653.34 480.61 663.1" fill="#b5b5b5"/><polygon points="444.16 599.26 428.64 606.26 431.92 615.66 446.86 613.09 444.16 599.26" fill="#2f2e41"/><polygon points="390.03 618.14 377.59 618.78 378.24 631.24 390.96 628.36 390.03 618.14" fill="#b5b5b5"/><polygon points="315.71 129.75 306.82 143.72 317.26 145.32 315.71 129.75" fill="#dedede"/><polygon points="248.68 92.61 237.54 104.87 247.57 108.21 248.68 92.61" fill="#dedede"/><polygon points="209.67 74.31 195.18 83.23 199.64 92.15 214.13 87.69 209.67 74.31" fill="#2f2e41"/><polygon points="248.94 95.37 236.31 106.12 245.82 110.7 248.94 95.37" fill="#dedede"/><polygon points="279.98 76.31 287.49 61.55 276.94 60.98 279.98 76.31" fill="#dedede"/><polygon points="238.94 -2.2 226.5 -1.57 227.13 10.89 239.87 8.02 238.94 -2.2" fill="#b5b5b5"/><polygon points="733.09 389.34 720.47 400.09 730 404.68 733.09 389.34" fill="#dedede"/><polygon points="820.73 315.74 819.12 298.78 809.16 298.84 806.75 313.82 820.73 315.74" fill="#2f2e41"/><polygon points="739.06 456.42 726.62 457.05 727.26 469.5 740 466.64 739.06 456.42" fill="#b5b5b5"/><polygon points="261.32 638.04 274.92 628.59 265.89 623.08 261.32 638.04" fill="#dedede"/><polygon points="178.43 621.7 169.51 635.67 179.98 637.26 178.43 621.7" fill="#dedede"/><polygon points="212.99 598.76 222.9 585.48 212.6 583.13 212.99 598.76" fill="#dedede"/><polygon points="192.23 534.73 204.21 531.31 200.81 519.32 189.04 524.95 192.23 534.73" fill="#b5b5b5"/><polygon points="248.26 470.04 235.64 480.76 245.17 485.37 248.26 470.04" fill="#dedede"/><polygon points="334.18 453.31 325.15 438.89 316.27 443.42 320.84 457.88 334.18 453.31" fill="#0071f2"/><polygon points="254.23 537.09 241.79 537.75 242.45 550.19 255.17 547.34 254.23 537.09" fill="#b5b5b5"/><polygon points="696.51 49.13 685.38 61.39 695.41 64.74 696.51 49.13" fill="#dedede"/><polygon points="649.01 173.86 662.59 164.39 653.56 158.91 649.01 173.86" fill="#dedede"/><polygon points="649.53 106.53 661.97 107.09 662.53 94.64 649.58 96.25 649.53 106.53" fill="#b5b5b5"/><polygon points="696.51 214.55 685.38 226.82 695.41 230.16 696.51 214.55" fill="#dedede"/><polygon points="765.63 322.19 753.37 324.43 755.59 336.69 767.86 332.23 765.63 322.19" fill="#b5b5b5"/><polygon points="649.01 339.28 662.59 329.82 653.56 324.32 649.01 339.28" fill="#dedede"/><polygon points="705.25 262.58 717.71 263.12 718.26 250.68 705.32 252.3 705.25 262.58" fill="#b5b5b5"/></g><path d="M389.13,311.49s41,8.92,41,22.3c0,0,9.82,101.72,27.66,125.81,0,0,2.68-8,6.25-1.79,0,0,15.16,45.5,39.25,36.58l.92-2.41s5.32,4-.33,12.63c0,0-6.31,19.27-11.3,20.27,0,0-13.62,61.64-45,45.94,0,0-48.6-49.35-54.58-84.49,0,0-19.44,29.91,9,94.95,0,0,17.32,53.79.75,65.05-80,54.33-188.92,22.49-222.53,10.58a27.35,27.35,0,0,1-18-21.79c-2.61-18,8.5-33.56,8.5-33.56,17.14-21.82,11.69-53.78,11.69-53.78h-6.24l-15.58,10.91C145.78,560.25,131,542.33,131,542.33c-18-12.77-10.48-43.7-5.48-58.66a48,48,0,0,0,2.34-18.62c-5.23-74.22,5.48-111.34,5.48-111.34C142.66,307,177,302.27,177,302.27Z" fill="#0071f2"/><path d="M246.19,321.09c-1.77,0,26.58,20.09,32.49,29,0,0,15.95-10.64,23.62-14.18,0,0,10.05-8.27,15.95-17.72,0,0,24.81-15.95,10.63-41.35,0,0-13.58-20.08-12.4-37.8l-66.15,1.77s7.08,21.86-1.19,42.53c0,0-2.36,18.9,13,29.54A18.6,18.6,0,0,1,246.19,321.09Z" fill="#f9b499"/><path d="M248.29,234.75a69.35,69.35,0,0,1,4.42,19.42s46.14,26.72,58.64-23.07Z" fill="#f7a48b"/><ellipse cx="282.81" cy="181.4" rx="53.16" ry="74.13" fill="#f9b499"/><path d="M174.72,297.47s31.64,2.32,29.26-31a38.3,38.3,0,0,0-7.73-20.08c-5.73-7.67-13.21-22.8-4.4-42.83,0,0,15.38-22.61,16.45-43.69a99.67,99.67,0,0,1,5-27.27c8.71-25.36,27.46-66.32,54.15-51.31,0,0,45.49-24.8,69.7,26.58,0,0,26.58,29,23,70.88,0,0,1.49,10.92,7.2,20a50.55,50.55,0,0,1,5.14,11.18c2.91,9,5.83,23.42.65,36.73,0,0-15.35,55.52,24.81,57.3,0,0-24.22,25.39-52.57,12.4a37.34,37.34,0,0,1-27.17,1.77S343,302.2,328.84,276.78c0,0-14.41-21.28-12.37-38.14,0,0,19.32-19.42,19.46-57.25,0,0-18.9,12.11-24.22-23.92,0,0-4.19-48.8-31.39-39.08a13.51,13.51,0,0,0-6.05,4.63c-1.28,1.67-4.52,3.29-12.76.78,0,0-25.17-1.64-13.89,46.69,2.68,11.52-2.74,23.56-13.45,28.57-.7.33-1.43.64-2.2.94,0,0,.55,19.15,18,39.85,0,0,6.73,21.16.39,40.07a23.2,23.2,0,0,0-1,10.33c.82,6.59,3.64,16.37,12.74,22.57,0,0-13.59,20.08-37.8-1.78C224.34,311.05,194.8,330.54,174.72,297.47Z" fill="#2f2e41"/><ellipse cx="230.16" cy="201.48" rx="9.99" ry="12.49" fill="#f9b499"/><path d="M217.84,314c-.14,4.08-.32,8.16-.37,12.24s-.12,8.15-.07,12.21a116.66,116.66,0,0,0,.67,12.14,32.27,32.27,0,0,0,1.12,5.83,6.24,6.24,0,0,0,1.2,2.33,1.11,1.11,0,0,0,.74.36,1.73,1.73,0,0,0,.93-.34,13.57,13.57,0,0,0,2.08-2,24.87,24.87,0,0,1,2.37-2.1,44.09,44.09,0,0,1,5.29-3.35,41,41,0,0,1,11.72-4.15,35.21,35.21,0,0,1,12.37-.11,38.38,38.38,0,0,1,11.56,4.11A40.48,40.48,0,0,0,255.77,348a36.11,36.11,0,0,0-12,.6,41.88,41.88,0,0,0-11.18,4.27,46.39,46.39,0,0,0-5,3.24,20.78,20.78,0,0,0-2.19,2,14.65,14.65,0,0,1-2.37,2.22,3.5,3.5,0,0,1-1.93.61,2.85,2.85,0,0,1-2-.89,7.69,7.69,0,0,1-1.62-3,31.67,31.67,0,0,1-1.13-6.19,107.82,107.82,0,0,1-.38-12.32A231.49,231.49,0,0,1,217.84,314Z" opacity="0.2" style="isolation:isolate"/><path d="M285.77,356.53a80,80,0,0,1,22.86,3.24,49,49,0,0,1,10.75,4.57c.84.52,1.65,1.08,2.47,1.62l.52.34a1.79,1.79,0,0,0,.44.16,1.84,1.84,0,0,0,.93-.06,1.74,1.74,0,0,0,.76-.55,2.06,2.06,0,0,0,.23-.41.88.88,0,0,0,.07-.23l.08-.33.67-2.82c1.84-7.48,3.95-14.9,6.48-22.18a127.08,127.08,0,0,1,9.26-21.15Q338.94,324,337,329.41t-3.64,10.91q-3.37,11-6.07,22.17l-.68,2.79-.09.36a3.53,3.53,0,0,1-.15.46,3.3,3.3,0,0,1-.49.83,3.43,3.43,0,0,1-4.35.89l-.4-.26-.29-.2-2.33-1.57a51.18,51.18,0,0,0-10.3-4.69,87.76,87.76,0,0,0-11.06-2.91A104,104,0,0,0,285.77,356.53Z" opacity="0.2" style="isolation:isolate"/><path d="M457.83,459.6c-.71,1.84-1.45,3.68-2.19,5.51s-1.47,3.67-2.24,5.49q-2.28,5.47-4.64,10.91l.07-.38a41.53,41.53,0,0,0,1.48,6.79,49,49,0,0,0,2.43,6.55,45.15,45.15,0,0,0,7.55,11.65,41.59,41.59,0,0,0,11,8.56c1,.51,2.07,1.09,3.16,1.52l1.62.7,1.65.61c1.1.44,2.25.72,3.38,1.07s2.29.58,3.44.88c-1.17-.18-2.36-.29-3.52-.53s-2.35-.45-3.49-.8a41.22,41.22,0,0,1-6.75-2.45,40.41,40.41,0,0,1-6.22-3.66,38.64,38.64,0,0,1-5.44-4.78,43.28,43.28,0,0,1-8-12.05,46.6,46.6,0,0,1-3.82-13.93v-.2l.09-.18c1.69-3.57,3.39-7.14,5.13-10.69.86-1.78,1.76-3.54,2.64-5.31S456.91,461.35,457.83,459.6Z" opacity="0.2" style="isolation:isolate"/><path d="M419.83,517.63a96.47,96.47,0,0,1,4.05-11.79,100.48,100.48,0,0,1,5.43-11.26,50,50,0,0,1,7.4-10.18,16.16,16.16,0,0,1,5.21-3.71,7.38,7.38,0,0,1,3.18-.56,6,6,0,0,1,3,1.07,6.33,6.33,0,0,0-3-.57,7,7,0,0,0-2.81.86,16.94,16.94,0,0,0-4.56,3.87,45.53,45.53,0,0,0-3.66,4.87c-1.13,1.7-2.19,3.45-3.2,5.24-2.05,3.55-3.9,7.24-5.72,10.94S421.59,513.87,419.83,517.63Z" opacity="0.2" style="isolation:isolate"/><path d="M448.6,478.86a15.75,15.75,0,0,0-7.38-1c-.62,0-1.24.11-1.86.17l-.93.1-.92.16c-1.24.17-2.47.45-3.69.72s-2.44.61-3.66.94-2.43.7-3.64,1.08-2.44.75-3.64,1.16-2.43.81-3.69,1.14c1.09-.69,2.21-1.32,3.34-1.95s2.33-1.13,3.5-1.66,2.42-.93,3.63-1.39a31.69,31.69,0,0,1,3.76-1.06,29.68,29.68,0,0,1,7.8-.8,13.39,13.39,0,0,1,2,.18,15.73,15.73,0,0,1,1.93.4A8.25,8.25,0,0,1,448.6,478.86Z" opacity="0.2" style="isolation:isolate"/><path d="M393,486.33c1.17-6.63,2.13-13.29,3-19.94s1.55-13.34,1.91-20l.22-5v-5c0-1.67-.07-3.34-.1-5l-.34-5c-.11-.81-.26-1.61-.39-2.42s-.35-1.66-.46-2.5a33.75,33.75,0,0,1-.39-5.12,22.78,22.78,0,0,1,.64-5.07,13.31,13.31,0,0,1,2.08-4.62,17.6,17.6,0,0,0-1.84,9.67,31.44,31.44,0,0,0,.66,4.92c.17.83.39,1.59.57,2.44s.37,1.69.52,2.54a110.16,110.16,0,0,1,.57,20.3,186.22,186.22,0,0,1-2.32,20.13A183.47,183.47,0,0,1,393,486.33Z" opacity="0.2" style="isolation:isolate"/><path d="M397.76,401.1q1.8-8.76,4.14-17.39c1.54-5.76,3.23-11.47,5-17.16s3.79-11.31,6-16.85c1.14-2.76,2.31-5.52,3.64-8.2a47.69,47.69,0,0,1,4.59-7.68,59.07,59.07,0,0,0-3.79,8c-1.13,2.75-2.11,5.55-3.13,8.33s-2,5.61-2.86,8.44-1.85,5.64-2.76,8.47l-5.4,17Q400.57,392.63,397.76,401.1Z" opacity="0.2" style="isolation:isolate"/><path d="M272,480.75c.31,6.91.58,13.81,1,20.71s.73,13.8,1.24,20.69c1,13.77,2.07,27.55,4.18,41.16l.86,5.08c.29,1.7.7,3.36,1,5,.77,3.36,1.5,6.79,2,10.22a154.72,154.72,0,0,1,2.07,20.71,126.47,126.47,0,0,1-1,20.77,85.52,85.52,0,0,1-5.2,20.08A89.84,89.84,0,0,0,282.56,625a124.56,124.56,0,0,0,.49-20.62,178.38,178.38,0,0,0-2.3-20.49c-.57-3.4-1.3-6.73-2.1-10.1-.36-1.7-.79-3.39-1.1-5.1l-.9-5.13q-1.48-10.3-2.37-20.65c-.6-6.9-1.12-13.8-1.41-20.71s-.57-13.82-.74-20.73S271.91,487.67,272,480.75Z" opacity="0.2" style="isolation:isolate"/><path d="M278.68,350a27.74,27.74,0,0,1-1,3.45c-.37,1.13-.77,2.25-1.11,3.39-.76,2.25-1.36,4.53-1.93,6.82a79.1,79.1,0,0,0-2,13.95c-.12,1.17-.12,2.35-.15,3.52s-.08,2.36,0,3.54l.07,3.53.22,3.54.11,1.77a17.72,17.72,0,0,0,.19,1.77l.37,3.53c.26,2.36.67,4.7.93,7.08-.65-2.29-1.29-4.6-1.8-6.93a52.84,52.84,0,0,1-1.19-7.08,73.66,73.66,0,0,1-.51-14.39,62.16,62.16,0,0,1,2.47-14.19,65.08,65.08,0,0,1,2.45-6.77c.48-1.1,1-2.19,1.48-3.26S278.27,351.16,278.68,350Z" opacity="0.2" style="isolation:isolate"/><path d="M155.1,343.58a50.31,50.31,0,0,1,4.2,8.56,70.78,70.78,0,0,1,2.87,9.11c.38,1.54.67,3.11,1,4.68l.33,2.37.17,1.18.09,1.2a47.42,47.42,0,0,1,0,9.53c-.44-3.15-.76-6.27-1.34-9.35s-1.14-6.16-1.91-9.19-1.54-6.07-2.43-9.08S156.12,346.59,155.1,343.58Z" opacity="0.2" style="isolation:isolate"/><path d="M172.25,448.8c-1.44-5.22-2.94-10.4-4.55-15.54-.83-2.55-1.66-5.11-2.66-7.58a29.55,29.55,0,0,1-1.4-3.89c-.37-1.33-.67-2.68-.91-4a55.85,55.85,0,0,1-.16-16.38,65.77,65.77,0,0,1,4.22-15.71A98.82,98.82,0,0,0,164,401.53a76.25,76.25,0,0,0-.21,8,52.56,52.56,0,0,0,.75,7.92c.22,1.31.49,2.61.83,3.88a31.17,31.17,0,0,0,1.29,3.74c.94,2.58,1.74,5.18,2.42,7.8A136.83,136.83,0,0,1,172.25,448.8Z" opacity="0.2" style="isolation:isolate"/><path d="M135.62,533.75A42.92,42.92,0,0,1,132,519.59,38.43,38.43,0,0,1,136,498a39,39,0,0,1,4.06-6.21,40.41,40.41,0,0,1,11.18-9.44,54.83,54.83,0,0,0-10.07,10.29,44.53,44.53,0,0,0-3.65,6.12,40.73,40.73,0,0,0-2.51,6.65,47.5,47.5,0,0,0-1.6,14.14A58.3,58.3,0,0,0,135.62,533.75Z" opacity="0.2" style="isolation:isolate"/><path d="M147.31,541.55c1.85.87,3.65,1.78,5.43,2.7s3.57,1.83,5.36,2.7,3.59,1.71,5.41,2.53,3.69,1.5,5.62,2.2a21.32,21.32,0,0,1-6.09-.89,36.55,36.55,0,0,1-5.73-2.23,46.54,46.54,0,0,1-5.28-3.11A31,31,0,0,1,147.31,541.55Z" opacity="0.2" style="isolation:isolate"/><path d="M128.6,489.33a33.91,33.91,0,0,1,5.81-3.9,42.59,42.59,0,0,1,6.4-2.85,33.82,33.82,0,0,1,6.87-1.62,19.18,19.18,0,0,1,7,.39,43.15,43.15,0,0,0-6.78,1c-.55.15-1.09.29-1.64.41s-1.09.32-1.63.48c-1.1.29-2.17.67-3.24,1-2.16.72-4.27,1.58-6.4,2.42Z" opacity="0.2" style="isolation:isolate"/><path d="M143.06,469.06a13.72,13.72,0,0,1,3.67,1.63,17,17,0,0,1,3.19,2.46,12.85,12.85,0,0,1,2.49,3.24,7.13,7.13,0,0,1,1,4,16.53,16.53,0,0,0-2.12-3.19c-.81-.95-1.67-1.86-2.57-2.73s-1.83-1.75-2.78-2.63S144,470,143.06,469.06Z" opacity="0.2" style="isolation:isolate"/><path d="M214.25,397.49a3.81,3.81,0,0,0-3.7,3.9,5,5,0,0,0,.06.56l4.56,26.23,9,49.18L285,451.11l-6.55-52.05a3.81,3.81,0,0,0-3.89-3.34Z" fill="#2f2e41"/><g opacity="0.2"><path d="M221.26,439.61,216.6,406.4a5.12,5.12,0,0,1,4.36-5.8,5.07,5.07,0,0,1,.56-.05l54.09-1.84.06,1.79-54.09,1.84a3.37,3.37,0,0,0-3.24,3.48l0,.33L223,439.36Z"/></g><path d="M464.08,457.81s25.74-73.31,15.42-94.93c0,0-18.19-22.62-17.21-33.92,0,0-3-17.7,7.87-17.7h13.27l4.92-8.36s22.12-68.81,35.88-63.9c0,0,5.9,3.44-5.9,23.11,0,0-12.29,29-10.81,36.37,0,0,20.64,6.39,14.74,15.24,0,0,12.29,2.95,9.34,12.29,0,0,14.26,2.95,1.48,24.58,0,0-5.9,9.83-5.9,19.66,0,0-1.29,3.44-2.45,6.63a34.07,34.07,0,0,0-1.87,8.21c-1.68,16.81-8.65,81.6-18.61,106.89,0,0-4.6,10.5-20.33-2.28C483.92,489.7,472.25,481,464.08,457.81Z" fill="#f9b499"/><path d="M522.26,313.72a49.29,49.29,0,0,0-6.25-1.34,38.55,38.55,0,0,0-6.35-.48,21.24,21.24,0,0,0-6.23.94,9.65,9.65,0,0,0-5,3.53h0c-2.54,2.46-5,5-7.41,7.62s-4.75,5.26-6.95,8a57.17,57.17,0,0,0-5.89,8.74,15.45,15.45,0,0,0-1.71,4.84,4.56,4.56,0,0,0,.24,2.37,3.26,3.26,0,0,0,1.57,1.64l.12.07.09.15a2,2,0,0,0,1.2.82,4,4,0,0,0,1.68,0,8.34,8.34,0,0,0,1.7-.59c.55-.26,1.08-.57,1.62-.89l.72-.43v.85a2.71,2.71,0,0,0,1.11,2.33,4.14,4.14,0,0,0,2.74.44,18.92,18.92,0,0,0,5.79-2.07c1.87-.94,3.63-2.08,5.45-3.15l5.44-3.27,5.44-3.26a11.3,11.3,0,0,1,6.2-1.49,36.72,36.72,0,0,0,12.59-.37,35.4,35.4,0,0,1-12.6.77,11.2,11.2,0,0,0-5.92,1.57l-5.37,3.35-5.37,3.35c-1.8,1.1-3.56,2.3-5.47,3.26a19.66,19.66,0,0,1-6.07,2.2,5,5,0,0,1-3.36-.58,3.27,3.27,0,0,1-1.17-1.38,4.07,4.07,0,0,1-.36-1.75l.71.42a11.79,11.79,0,0,1-3.62,1.62,4.65,4.65,0,0,1-2.1,0,2.89,2.89,0,0,1-1.84-1.32l.21.22a4.32,4.32,0,0,1-2-2.13,5.51,5.51,0,0,1-.32-2.87,16.33,16.33,0,0,1,1.84-5.16,57.79,57.79,0,0,1,6-8.87A153,153,0,0,1,498,315.94V316a10.32,10.32,0,0,1,5.35-3.67,20.11,20.11,0,0,1,6.4-.82,39.23,39.23,0,0,1,6.39.66A46.12,46.12,0,0,1,522.26,313.72Z" fill="#f7a48b"/><path d="M531.6,326c-4.72.3-9.45.49-14.18.67-2.36.11-4.73.14-7.09.22a10.08,10.08,0,0,0-3.3.69,13.34,13.34,0,0,0-3,1.72,76.33,76.33,0,0,0-10.87,8.94,45.88,45.88,0,0,0-4.62,5.32,34.38,34.38,0,0,0-3.66,6,36,36,0,0,1,7.73-11.88,69.92,69.92,0,0,1,10.86-9.24,15.12,15.12,0,0,1,3.19-1.78,10.93,10.93,0,0,1,3.61-.71c2.38,0,4.74-.09,7.11-.07C522.14,325.9,526.87,325.9,531.6,326Z" fill="#f7a48b"/><path d="M473.6,328c2.42-1,4.88-1.94,7.35-2.85l3.68-1.33a8.28,8.28,0,0,0,3-2.1,7.61,7.61,0,0,0,1.86-6.85,4.13,4.13,0,0,0-2.32-2.69,10.4,10.4,0,0,0-3.76-.89,9.62,9.62,0,0,1,3.95.44,4.77,4.77,0,0,1,2.86,2.9,8,8,0,0,1-1.86,7.76A8.83,8.83,0,0,1,485,324.7c-1.29.43-2.51.81-3.78,1.18C478.67,326.6,476.15,327.34,473.6,328Z" fill="#f7a48b"/><path d="M488.35,302.9c1-1.69,2.11-3.35,3.24-5l.85-1.22a7,7,0,0,1,1.08-1.17,6.54,6.54,0,0,1,2.86-1.36,6.43,6.43,0,0,1,3.17.19A12.63,12.63,0,0,1,501,295l1.33.66c1.77.89,3.51,1.84,5.23,2.83-1.88-.65-3.73-1.35-5.56-2.12l-1.36-.57a10.14,10.14,0,0,0-1.33-.51,5.77,5.77,0,0,0-5.15,1,5.91,5.91,0,0,0-1,1l-.92,1.15Q490.37,300.72,488.35,302.9Z" fill="#f7a48b"/><path d="M477.53,326.5c.37.69.74,1.35,1.13,2a9.25,9.25,0,0,0,1.31,1.68,4.9,4.9,0,0,0,1.69,1.12,7.22,7.22,0,0,0,2.16.39,3.85,3.85,0,0,1-2.36.37,4.34,4.34,0,0,1-2.2-1.17,6.27,6.27,0,0,1-1.3-2A6.1,6.1,0,0,1,477.53,326.5Z" fill="#f7a48b"/><path d="M216.57,186.5l-.77,16.91s19.61,0,26.53-11.15L230,165Z" fill="#2f2e41"/><path d="M160,536.18s26.58,7.31,35.89-25.92l7-18.28s17.61,4,30.24-3c0,0,18.61-14,33.56-17.61,0,0,9-2.32,12.3-10.63,0,0,24.92-10,13.95-17.94,0,0,5.34-7.2-2.39-8.47a12.58,12.58,0,0,0-5,.26l-53.31,13.1a2.66,2.66,0,0,1-3.21-1.94,2.34,2.34,0,0,1-.07-.45h0a2.67,2.67,0,0,1,1.56-2.6c3.4-1.51,11.34-5,17.93-7.55,0,0,16.28-3.65,15.28-10.63,0,0,.33-6.31-29.24-.67,0,0-14.62,4-19.27,4.32l-3-13.95s-9,4-16.28,18.61c0,0-9.64,15.35-18.88,22.85a48.57,48.57,0,0,0-4.05,3.67c-7.9,8.07-30.37,33.55-24.59,57.21A38.3,38.3,0,0,0,160,536.18Z" fill="#f9b499"/><path d="M220.48,463.74a68.31,68.31,0,0,0,9.58.83,62.94,62.94,0,0,0,9.51-.48,45.15,45.15,0,0,0,9.17-2.17c2.87-1.1,5.81-2.59,8.72-3.91,5.85-2.67,11.71-5.32,17.61-7.86s11.85-5,17.85-7.34q-8.52,4.54-17.2,8.76c-5.77,2.83-11.6,5.55-17.43,8.25l-4.39,2c-1.44.68-3,1.3-4.53,1.88a41.55,41.55,0,0,1-9.63,1.93A54.7,54.7,0,0,1,220.48,463.74Z" fill="#f7a48b"/><path d="M219.16,484a45.38,45.38,0,0,1,7-4.09,75.06,75.06,0,0,1,7.47-3.13c2.54-.94,5.13-1.73,7.73-2.44,1.31-.37,2.61-.67,3.92-1l1-.23.45-.12.47-.14,1.9-.61c5.09-1.61,10.1-3.44,15.1-5.35s9.91-4,14.83-6.18a111.08,111.08,0,0,1-14.23,7.62c-2.45,1.12-4.95,2.13-7.46,3.12s-5.06,1.86-7.63,2.7l-1.94.59-.49.14-.52.14-1,.21c-1.32.28-2.62.59-3.91.91-2.59.6-5.15,1.34-7.71,2.08s-5.08,1.61-7.57,2.56A66.61,66.61,0,0,0,219.16,484Z" fill="#f7a48b"/><path d="M155.1,483.09a51.06,51.06,0,0,0-5.68,13.9,41.8,41.8,0,0,0-1.2,7.37,37.23,37.23,0,0,0,3,18.11c.24.57.54,1.11.81,1.67a17,17,0,0,0,.87,1.63,45.77,45.77,0,0,0,9.39,11.4,73.25,73.25,0,0,0,12.1,8.66,9.85,9.85,0,0,0,6.78.9,9.67,9.67,0,0,0,3.21-1.35,11.59,11.59,0,0,0,1.41-1.1c.47-.4.92-.83,1.37-1.25a27.64,27.64,0,0,0,7.68-12.46,23.54,23.54,0,0,0,.75-7.38l-.17-1.87c-.09-.62-.24-1.23-.35-1.85l-.18-.92-.26-.91-.53-1.81a27,27,0,0,1,2,7.32,23.84,23.84,0,0,1-.36,7.63,27.9,27.9,0,0,1-7.6,13.22c-.45.46-.9.92-1.39,1.34a11,11,0,0,1-5.22,2.91,11.47,11.47,0,0,1-7.93-.94,72.26,72.26,0,0,1-12.51-8.83,46.49,46.49,0,0,1-9.67-11.91,15.46,15.46,0,0,1-.88-1.72c-.27-.58-.57-1.15-.82-1.75a36.5,36.5,0,0,1-1.3-3.63,34.24,34.24,0,0,1-1.46-7.57,41.14,41.14,0,0,1,1.65-15.16,51.86,51.86,0,0,1,2.73-7.11A41.36,41.36,0,0,1,155.1,483.09Z" fill="#0071f2"/><path d="M155.1,483.09a51.06,51.06,0,0,0-5.68,13.9,41.8,41.8,0,0,0-1.2,7.37,37.23,37.23,0,0,0,3,18.11c.24.57.54,1.11.81,1.67a17,17,0,0,0,.87,1.63,45.77,45.77,0,0,0,9.39,11.4,73.25,73.25,0,0,0,12.1,8.66,9.85,9.85,0,0,0,6.78.9,9.67,9.67,0,0,0,3.21-1.35,11.59,11.59,0,0,0,1.41-1.1c.47-.4.92-.83,1.37-1.25a27.64,27.64,0,0,0,7.68-12.46,23.54,23.54,0,0,0,.75-7.38l-.17-1.87c-.09-.62-.24-1.23-.35-1.85l-.18-.92-.26-.91-.53-1.81a27,27,0,0,1,2,7.32,23.84,23.84,0,0,1-.36,7.63,27.9,27.9,0,0,1-7.6,13.22c-.45.46-.9.92-1.39,1.34a11,11,0,0,1-5.22,2.91,11.47,11.47,0,0,1-7.93-.94,72.26,72.26,0,0,1-12.51-8.83,46.49,46.49,0,0,1-9.67-11.91,15.46,15.46,0,0,1-.88-1.72c-.27-.58-.57-1.15-.82-1.75a36.5,36.5,0,0,1-1.3-3.63,34.24,34.24,0,0,1-1.46-7.57,41.14,41.14,0,0,1,1.65-15.16,51.86,51.86,0,0,1,2.73-7.11A41.36,41.36,0,0,1,155.1,483.09Z" opacity="0.2" style="isolation:isolate"/></g><g id="ef144473-4dd7-4089-8fca-06e22ac0ec06" data-name="b392aa78-ec77-42fd-89cc-31393c0a154f"><polygon points="501.44 33.74 510.98 226.66 545.08 226.02 545.08 276.46 593.42 226.79 747.84 226.79 765.19 23.85 501.44 33.74" fill="#fff"/><path d="M501.43,33.74,765.17,23.56h.33v.33c-5.17,60.51-11,129.66-17.31,203v.31H593.42l.23-.09-48.36,49.64-.5.53v-51.2l.29.28L511,227h-.25v-.25c-5.66-117.59-9.19-190.81-9.3-192.88.12,2.13,3.79,75.34,9.81,192.88l-.26-.25,34.1-.66h.28v50.72l-.52-.22,48.33-49.67.09-.1H747.84l-.33.31c6.31-73.28,12.21-142.46,17.39-203l.3.32Z" fill="#2f2e41"/></g><g id="b3609582-456f-4a6d-afe1-66fc65ee4017" data-name="b1a10d8d-d757-4ef5-b314-da1e0a05b943"><polygon points="724.19 81.8 739.61 44.89 752.82 52.73 724.19 81.8" fill="#0071f2"/><polygon points="739.36 110 779.94 112.69 776.75 127.98 739.36 110" fill="#0071f2"/><polygon points="733.54 89.25 786.47 58.95 796.83 82.02 733.54 89.25" fill="#0071f2"/><polygon points="674.43 60.49 676.76 66.13 682.41 68.47 676.76 70.79 674.43 76.45 672.11 70.79 666.45 68.47 672.11 66.13 674.43 60.49" fill="#0071f2"/><polygon points="540.23 189.68 542.56 195.34 548.21 197.66 542.56 199.99 540.23 205.64 537.9 199.99 532.25 197.66 537.9 195.34 540.23 189.68" fill="#0071f2"/><polygon points="655.27 56.91 656.44 59.73 659.27 60.9 656.44 62.06 655.27 64.89 654.11 62.06 651.29 60.9 654.11 59.73 655.27 56.91" fill="#0071f2"/><polygon points="560.8 187.38 561.96 190.22 564.79 191.38 561.96 192.54 560.8 195.36 559.64 192.54 556.82 191.38 559.64 190.22 560.8 187.38" fill="#0071f2"/><polygon points="740.24 146.83 741.4 149.65 744.24 150.81 741.4 151.97 740.24 154.81 739.08 151.97 736.24 150.81 739.08 149.65 740.24 146.83" fill="#0071f2"/></g><g id="bdb4d5ce-b2f2-4068-b672-23145a0804ed" data-name="a2e4204d-b471-4d10-b1c6-e8849960cf95"><path d="M560.33,113.38V119H539.71V93.3h20.17v5.62h-13v4.33h11.4v5.43h-11.4v4.7Z" fill="#0071f2"/><path d="M580.38,119l-5.32-8-5.26,8h-8.3l9.37-12.93-9-12.7h8.19l5.13,7.42,5-7.42H588l-9,12.41,9.53,13.29Z" fill="#0071f2"/><path d="M595.84,117.8a12.85,12.85,0,0,1-5-4.76,13.86,13.86,0,0,1,0-13.79,12.83,12.83,0,0,1,5-4.75,15.37,15.37,0,0,1,7.25-1.72A15.7,15.7,0,0,1,609.4,94a12.25,12.25,0,0,1,4.7,3.61l-4.63,4.19a7.8,7.8,0,0,0-9.83-2.1,6.35,6.35,0,0,0-2.52,2.59,8.6,8.6,0,0,0,0,7.66,6.24,6.24,0,0,0,2.52,2.52,7.33,7.33,0,0,0,3.78.92,7.53,7.53,0,0,0,6.05-3l4.63,4.18a12.13,12.13,0,0,1-4.7,3.6,15.37,15.37,0,0,1-6.31,1.26A15.08,15.08,0,0,1,595.84,117.8Z" fill="#0071f2"/><path d="M617.36,93.3h7.26V119h-7.26Z" fill="#0071f2"/><path d="M635.28,99.06h-7.89V93.3h23v5.76h-7.85V119h-7.26Z" fill="#0071f2"/><path d="M653.1,93.3h7.28V119H653.1Z" fill="#0071f2"/><path d="M690,93.3V119h-6l-11.34-13.7V119h-7.13V93.3h6L682.87,107V93.3Z" fill="#0071f2"/><path d="M712.34,105.59h6.42v10.65a16.93,16.93,0,0,1-5,2.43,20.51,20.51,0,0,1-5.72.84,15.29,15.29,0,0,1-7.27-1.71,12.78,12.78,0,0,1-5-4.76,13.9,13.9,0,0,1,0-13.79,12.77,12.77,0,0,1,5.11-4.75,15.89,15.89,0,0,1,7.38-1.72A16.76,16.76,0,0,1,714.62,94a12.72,12.72,0,0,1,4.77,3.5l-4.63,4.18a8.18,8.18,0,0,0-6.24-2.86,6.9,6.9,0,0,0-7.34,7.34,7.77,7.77,0,0,0,.92,3.78,6.48,6.48,0,0,0,2.53,2.61,7.46,7.46,0,0,0,3.78.93,9.32,9.32,0,0,0,3.93-.84Z" fill="#0071f2"/><path d="M579.1,133v39.87h-9.29l-17.65-21.26v21.26h-11V133h9.29l17.65,21.27V133Z" fill="#0071f2"/><path d="M619.13,164.19v8.68h-32V133h31.3v8.72H598.21v6.72h17.73v8.45H598.26v7.3Z" fill="#0071f2"/><path d="M687.46,133l-13,39.87H662.41l-7.64-24.29-8,24.29H634.7L621.7,133h11.64l8,25.48L649.86,133h10.38l8,25.72L676.66,133Z" fill="#0071f2"/><path d="M696.1,172.51a23,23,0,0,1-7.41-3.19L692.4,161a25,25,0,0,0,13.16,3.93c4.33,0,6.5-1.07,6.5-3.24a2.7,2.7,0,0,0-1.85-2.52,34.63,34.63,0,0,0-6-1.74,56.51,56.51,0,0,1-7.57-2.08,12.6,12.6,0,0,1-5.19-3.56,9.64,9.64,0,0,1-2.17-6.62,11.51,11.51,0,0,1,2-6.58,13.36,13.36,0,0,1,6-4.65,24.66,24.66,0,0,1,9.72-1.71,34.25,34.25,0,0,1,7.75.89,24,24,0,0,1,6.73,2.59L718,144.08A23.34,23.34,0,0,0,706.94,141a9.26,9.26,0,0,0-4.9,1,3,3,0,0,0-1.54,2.6,2.51,2.51,0,0,0,1.82,2.39,33.24,33.24,0,0,0,5.87,1.65,55.05,55.05,0,0,1,7.57,2.08,13.13,13.13,0,0,1,5.19,3.53,9.48,9.48,0,0,1,2.19,6.6,11.21,11.21,0,0,1-2,6.49,13.61,13.61,0,0,1-6,4.65,24.16,24.16,0,0,1-9.69,1.74A37.31,37.31,0,0,1,696.1,172.51Z" fill="#0071f2"/></g><g id="bcb4a99d-7f17-4fb1-8dcd-e229dc4ab81f" data-name="aaa073ef-eae8-489a-9305-92fc5edfb8bc"><path d="M660.12,418.93h0a.18.18,0,0,0-.08-.23.23.23,0,0,0-.25.11,231.12,231.12,0,0,0-12.13,38,351.61,351.61,0,0,0-6.7,39.47l-1,10c-.15,1.76-.33,3.32-.45,5l-.27,5c-.15,3.34-.35,6.67-.45,10l.1,10,.11,5c0,1.66.19,3.33.3,5,.26,3.33.45,6.66.77,10,.63,6.65,1.63,13.27,2.67,19.85a.17.17,0,0,0,.17.14.19.19,0,0,0,.18-.18h0c0-3.33-.16-6.65-.25-10s-.38-6.64-.33-10,0-6.64-.11-10l-.08-5,.08-5V526.3l.27-9.93.1-5c0-1.65.19-3.3.28-5l.62-9.91a355.11,355.11,0,0,1,5.61-39.36A233,233,0,0,1,660.12,418.93Z" fill="#2f2e41"/><path d="M661.54,470.82a.17.17,0,0,0-.14-.21.18.18,0,0,0-.19.08h0a239.88,239.88,0,0,0-7,25.23A234.17,234.17,0,0,0,650,521.85c-.88,8.68-1.86,17.39-2,26.13a216.34,216.34,0,0,0,.93,26.21.19.19,0,0,0,.14.16.21.21,0,0,0,.21-.16c1-8.77,1.62-17.39,2.21-26.06s.7-17.37,1.28-26a228.66,228.66,0,0,1,3.09-25.83A236,236,0,0,1,661.54,470.82Z" fill="#2f2e41"/><path d="M690.34,489.14a.18.18,0,0,0-.25,0,87.81,87.81,0,0,0-19.3,16.77,75,75,0,0,0-7.53,10.53l-1.54,2.92-1.21,3a27.88,27.88,0,0,0-1.07,3.07c-.3,1-.65,2.07-.93,3.11a123.9,123.9,0,0,0-4,25.39,146.74,146.74,0,0,0,.94,25.58.2.2,0,0,0,.18.16.17.17,0,0,0,.17-.16l2.2-25.32a228.42,228.42,0,0,1,3.21-25c.23-1,.53-2,.79-3a24,24,0,0,1,.88-3l1-2.91,1.32-2.77A75.78,75.78,0,0,1,672.14,507a86.7,86.7,0,0,1,18.08-17.55h0a.19.19,0,0,0,.23-.1.19.19,0,0,0-.11-.23Z" fill="#2f2e41"/><path d="M676.41,521.71a27.75,27.75,0,0,0-8.78,10.53,61.84,61.84,0,0,0-4.91,12.89c-.35,1.11-.61,2.23-.86,3.35l-.79,3.37a56.11,56.11,0,0,0-.84,6.83c0,2.3-.11,4.6,0,6.88a63,63,0,0,0,.89,6.84.2.2,0,0,0,.14.14.18.18,0,0,0,.21-.13h0a56.68,56.68,0,0,0,1.22-6.72c.36-2.24.7-4.46,1-6.67s.61-4.4.79-6.63a44.73,44.73,0,0,1,.95-6.62A60.51,60.51,0,0,1,669.16,533a28.11,28.11,0,0,1,7.35-11h0a.16.16,0,0,0,0-.22A.14.14,0,0,0,676.41,521.71Z" fill="#2f2e41"/><path d="M636,547c-.94-11.25-2.79-22.37-4.54-33.5s-3.7-22.22-5.74-33.34-4.3-22.11-6.68-33.09a.18.18,0,1,0-.36,0h0q2.9,16.6,5.27,33.34c1.6,11.16,3.26,22.25,4.67,33.34s2.45,22.33,3.84,33.46l4.12,33.46a.16.16,0,0,0,.16.16.19.19,0,0,0,.19-.18c.13-2.8.13-5.63.2-8.45s-.11-5.64-.16-8.46C636.93,558.28,636.43,552.66,636,547Z" fill="#2f2e41"/><path d="M629.28,546.87c-.6-4.46-1.43-8.88-2.27-13.3L625.43,527c-.51-2.18-1-4.37-1.65-6.53a184.22,184.22,0,0,0-8.6-25.57l-1.33-3.09-1.51-3c-1-2-2.1-4-3.19-5.93A49.25,49.25,0,0,0,601,472.1a.18.18,0,0,0-.24.07.19.19,0,0,0,0,.18h0a49.89,49.89,0,0,1,7.42,11c1,2,2,4,2.84,6l1.32,3.07,1.17,3.12a184.92,184.92,0,0,1,7.5,25.57c1,4.31,1.75,8.77,2.52,13.09l1.06,6.58c.38,2.19.85,4.37,1.15,6.58.71,4.39,1.51,8.77,2.28,13.18s1.5,8.77,2.43,13.21a.18.18,0,0,0,.17.14.18.18,0,0,0,.18-.17h0q0-6.75-.32-13.48C630.29,555.8,629.75,551.34,629.28,546.87Z" fill="#2f2e41"/><path d="M620,547.43c-2.09-5.89-4.5-11.67-7.13-17.32a152.84,152.84,0,0,0-9-16.42.2.2,0,0,0-.23,0,.18.18,0,0,0,0,.24,152.38,152.38,0,0,1,7.65,16.94c2.29,5.74,4.34,11.58,6.06,17.54s3,12,4.6,17.92,3,11.93,4.82,17.95a.18.18,0,0,0,.16.14.18.18,0,0,0,.17-.17h0a89.06,89.06,0,0,0-1.75-18.71A117.6,117.6,0,0,0,620,547.43Z" fill="#2f2e41"/><path d="M619.59,567.08a40.69,40.69,0,0,0-5-10.37,42.44,42.44,0,0,0-7.19-8.94,33.9,33.9,0,0,0-4.58-3.51,18.92,18.92,0,0,0-5.27-2.36.18.18,0,0,0-.19.11.17.17,0,0,0,0,.23h0a26,26,0,0,1,8.61,6.7,41.39,41.39,0,0,1,6,9.09c1.76,3.23,2.58,6.79,4.07,10.13.65,1.75,1.3,3.42,2.06,5.12a42.07,42.07,0,0,0,2.26,5.26h0a.17.17,0,0,0,.16.09.18.18,0,0,0,.17-.17h0a36.69,36.69,0,0,0-.21-5.74A53.77,53.77,0,0,0,619.59,567.08Z" fill="#2f2e41"/><path d="M620.29,463.26a32,32,0,0,1-22.67-24c-4.25-19.82,9.44-11.33-2.84-42.5s-9.44-38.25-5.27-47.23,6.62-6.15,10.39,5.66,17.55,30.24,22.67,64.72S620.29,463.26,620.29,463.26Z" fill="#0071f2"/><path d="M656.61,429.72s-12.28-4.24-12.75-27.39,9-18.42,10.4-47.24,3.3-49.13,8.5-49.59,18.89,14.18,23.61,46.3-6.14,53.36-15.58,62.81S656.61,429.72,656.61,429.72Z" fill="#0071f2"/><path d="M613.68,491.12s-2.85-17-8.52-25-17.93-15.11-26-30.69-17-23.14-16.52-.95S573,468,585.31,475.58,613.68,491.12,613.68,491.12Z" fill="#0071f2"/><path d="M608.48,520.39s-11.33-21.72-27.86-37.78-29.83-24.07-25-16.05S566,474.12,574,488.28s5.67,24.57,17,32.58S608.48,520.39,608.48,520.39Z" fill="#0071f2"/><path d="M607.06,548.26c-.47-1.41-.95-11.8-17-20.31s-31.17-5.26-29.29-.94,11.81,11.33,21.74,15.6S607.06,548.26,607.06,548.26Z" fill="#0071f2"/><path d="M655.7,492.07s-7-9-3.3-27.87,12.29-14.17,21.73-24.09,7.56-11.33,17-21.72,18-16.06,21.72-11.81-1.89,17.55-7.56,25-14.63,11.34-18.85,20.79S684.08,477,673.21,484,655.7,492.07,655.7,492.07Z" fill="#0071f2"/><path d="M679.32,497.26s17-19.3,29.29-33.53,17-25,17.54-15.58,4.25,17-5.66,29.27S679.32,497.26,679.32,497.26Z" fill="#0071f2"/><path d="M670.35,528.43s-.47-7.57,26.45-25,38.25-20.8,35.43-13.71-14.66,14.16-27.4,26.92S670.35,528.43,670.35,528.43Z" fill="#0071f2"/><path d="M621.41,461.74a.51.51,0,0,1-.49-.41c-.06-.34-6.39-34.14-12.92-57.87s-10.82-38.57-10.86-38.72a.51.51,0,0,1,.34-.62.51.51,0,0,1,.62.35c0,.14,4.32,15,10.86,38.73s12.88,57.61,12.95,57.95a.5.5,0,0,1-.4.58Z" fill="#2f2e41"/><path d="M655.56,430.57h-.15a.51.51,0,0,1-.33-.63c.12-.36,11.51-36.94,15.25-58.85,3.4-19.86.31-35.14-1.72-45.25-.23-1.14-.45-2.21-.64-3.22a.5.5,0,0,1,.38-.58h0a.5.5,0,0,1,.58.39c.19,1,.41,2.08.64,3.21,2,10.18,5.15,25.57,1.73,45.61-3.75,22-15.17,58.63-15.28,59A.5.5,0,0,1,655.56,430.57Z" fill="#2f2e41"/><path d="M612.18,490.9a.5.5,0,0,1-.43-.25,178.78,178.78,0,0,0-17.36-24.77c-2.66-3.16-5.13-5.89-7.52-8.53-6.79-7.51-12.15-13.45-15.7-22.3a.5.5,0,0,1,.28-.65h0a.5.5,0,0,1,.65.28h0c3.48,8.69,8.79,14.56,15.51,22,2.4,2.65,4.87,5.39,7.55,8.55a180.91,180.91,0,0,1,17.46,24.92.49.49,0,0,1-.17.67h0A.43.43,0,0,1,612.18,490.9Z" fill="#2f2e41"/><path d="M655.7,492.57h-.08a.49.49,0,0,1-.41-.56h0c0-.23,3.91-22.93,12.85-34.7,3.47-4.57,8.22-10.06,13.26-15.88,8-9.31,16.38-18.93,20.72-26.19a.49.49,0,0,1,.68-.18.51.51,0,0,1,.18.69c-4.38,7.34-12.74,17-20.83,26.33-5,5.81-9.77,11.29-13.21,15.83-8.79,11.58-12.63,34-12.67,34.26A.49.49,0,0,1,655.7,492.57Z" fill="#2f2e41"/><path d="M606,548.25a.5.5,0,0,1-.27-.08c-.16-.11-16-10.41-27.18-16a.5.5,0,0,1-.23-.67h0a.51.51,0,0,1,.67-.22c11.24,5.62,27.13,16,27.29,16.05a.5.5,0,0,1,.14.69A.48.48,0,0,1,606,548.25Z" fill="#2f2e41"/><path d="M652.17,647.93H631.38a9.12,9.12,0,0,1-8.42-5.62C616.17,626,598,579.05,609,565.73c10.41-12.68,55.24-12.68,65.65,0,10.91,13.32-7.22,60.31-14,76.58A9.13,9.13,0,0,1,652.17,647.93Z" fill="#2f2e41"/></g></svg>